<svg width="89" height="20" viewBox="0 0 89 20" fill="none" xmlns="http://www.w3.org/2000/svg">
<path fill-rule="evenodd" clip-rule="evenodd" d="M11.2173 10.7196C13.0072 10.9959 13.2491 12.0549 13.3938 13.0406L13.4179 13.2087L13.4343 13.3231L13.5215 13.9031C13.692 15.0107 14.0477 17.3097 14.0477 18.5094C14.0477 18.8092 14.0214 19.0393 13.9732 19.1657C13.8929 19.3606 13.6589 19.5476 13.3357 19.7035C12.5539 19.8959 11.7367 20 10.895 20C10.8058 20 10.7181 19.9957 10.6301 19.9931C10.2899 19.8964 10.0343 19.7351 9.89888 19.5147C9.49013 18.8493 9.46551 17.3669 9.45732 15.6345L9.45638 15.4336L9.45307 14.9143C9.43976 13.0804 9.42832 11.4991 10.0946 10.9317C10.3527 10.7134 10.7194 10.6412 11.2173 10.7196ZM7.31486 14.7124C7.70274 14.6906 7.95218 16.5984 8.00231 18.0451C8.03743 19.0522 7.93168 19.4666 7.7628 19.6153C7.57162 19.5515 7.38374 19.4824 7.19861 19.4074C7.07511 19.183 6.98072 18.83 6.92075 18.3676C6.73766 16.9146 6.8967 14.738 7.31486 14.7124ZM17.039 17.5634C17.0148 17.6959 16.9807 17.7983 16.9386 17.8846C16.607 18.1508 16.2584 18.3951 15.8937 18.6149C15.7775 18.6344 15.6743 18.6208 15.6239 18.5356C15.1404 17.6861 14.959 15.0214 15.4268 14.7894C16.0367 14.4948 17.1294 17.1027 17.039 17.5634ZM10.7506 0C16.1967 0 20.6255 4.31289 20.7477 9.67956L20.7502 9.86506V9.95081C20.7402 12.375 19.848 14.5929 18.3783 16.3095C18.3249 16.2827 18.2277 16.1952 18.0515 15.9316C17.8692 15.6667 16.2969 13.2471 16.2969 10.4738C16.2969 9.92956 17.0814 9.07938 17.7756 8.33313C18.2946 7.77156 18.7861 7.24188 18.9671 6.82556C19.1977 6.28838 19.0364 5.91328 18.7813 5.78614C18.5503 5.67314 18.2036 5.75556 17.9603 6.18769C17.5611 6.88706 17.4331 7.01775 16.8507 7.48569C16.2777 7.95338 15.3666 8.42419 15.3666 7.81475C15.3666 7.48569 15.8741 6.74044 16.1247 6.21806C16.3807 5.68986 16.1048 5.30747 15.5762 5.30747C14.5381 5.30747 13.849 6.62981 13.849 7.08794C13.849 7.54569 14.0711 7.61088 14.0711 8.14394C14.0711 8.681 12.9322 9.37762 11.8593 9.37762C10.8263 9.37762 10.2273 9.16856 9.97913 8.57956L9.94745 8.49687L9.8757 8.28463C9.62119 7.54081 9.43863 7.00138 9.12082 6.43763C8.95206 6.1395 8.69169 5.93283 8.4665 5.75098C8.17218 5.52237 8.01949 5.31188 7.98762 5.1549C7.95824 4.99916 7.94243 4.70565 8.44556 4.02906C8.94763 3.35634 9.018 2.84813 8.76675 2.58589C8.67569 2.49261 8.52044 2.43284 8.32106 2.43284C7.96843 2.43284 7.47843 2.61968 6.97345 3.13291C6.18848 3.93725 6.63411 4.70093 6.63411 5.03618C6.63411 5.3712 6.49031 5.56071 6.01923 6.0165C5.54471 6.47431 5.38094 6.86681 5.32667 8.44431C5.30588 9.25712 5.16273 9.725 5.03423 10.1399C4.92319 10.5035 4.82107 10.8454 4.81555 11.3393C4.80676 11.8867 4.89787 12.2394 5.0042 12.6464C5.10859 13.0226 5.21947 13.4537 5.2905 14.1747C5.40349 15.2909 5.36421 16.2338 5.15878 17.1975L5.10396 17.4389L5.09115 17.5083C5.04908 17.6777 4.99907 17.8834 4.93148 17.9604C2.40049 16.1628 0.75 13.2269 0.75 9.90819C0.75 4.43652 5.22722 0 10.7506 0Z" fill="white"/>
<path d="M58.9407 6.85675C59.9301 6.85675 60.6994 7.20713 61.2486 7.90788C61.7976 8.60863 62.0721 9.57188 62.0721 10.7976V10.9116C62.0721 12.1088 61.7914 13.0649 61.23 13.7799C60.6684 14.4949 59.9103 14.8524 58.9555 14.8524C58.2184 14.8524 57.6123 14.5935 57.1374 14.0757V17.9663H54.6368V6.99931H56.9742L57.0485 7.71194C57.5283 7.14181 58.159 6.85675 58.9407 6.85675ZM41.5029 6.85675C42.5269 6.85675 43.3357 7.09669 43.9294 7.5765C44.5231 8.05638 44.8273 8.71438 44.8421 9.5505V12.964C44.8521 13.6719 44.9658 14.2134 45.1835 14.5888V14.7099H42.6827C42.5937 14.5531 42.5145 14.3228 42.4453 14.0187C41.9852 14.5745 41.3421 14.8524 40.516 14.8524C39.759 14.8524 39.116 14.6327 38.5866 14.1933C38.0573 13.7538 37.7926 13.2015 37.7926 12.5364C37.7926 11.7003 38.1141 11.0684 38.7573 10.6408C39.4004 10.2133 40.3354 9.99944 41.5622 9.99944H42.334V9.59325C42.334 8.88538 42.0149 8.53144 41.3767 8.53144C40.7831 8.53144 40.4863 8.81175 40.4863 9.37231H37.9855C37.9855 8.62644 38.3157 8.02075 38.9762 7.55513C39.6366 7.08956 40.4788 6.85675 41.5029 6.85675ZM49.643 6.85675C50.7016 6.85675 51.5525 7.08719 52.1956 7.548C52.8388 8.00888 53.1603 8.61456 53.1603 9.36519H50.6522C50.6522 8.74763 50.3133 8.43881 49.6356 8.43881C49.3733 8.43881 49.1532 8.50888 48.9752 8.649C48.797 8.78919 48.708 8.96375 48.708 9.17281C48.708 9.38663 48.8168 9.56 49.0345 9.693C49.2522 9.82606 49.5997 9.93531 50.077 10.0208C50.5544 10.1064 50.9737 10.2085 51.3349 10.3273C52.542 10.7263 53.1454 11.4413 53.1454 12.4723C53.1454 13.1754 52.8203 13.7479 52.1697 14.1897C51.5191 14.6315 50.6769 14.8524 49.643 14.8524C48.9553 14.8524 48.3419 14.7337 47.8027 14.4961C47.2635 14.2586 46.843 13.9355 46.5411 13.5269C46.2394 13.1184 46.0885 12.6884 46.0885 12.2371H48.426C48.4359 12.5934 48.5595 12.8535 48.797 13.0174C49.0345 13.1813 49.3387 13.2633 49.7097 13.2633C50.051 13.2633 50.3072 13.1968 50.4778 13.0638C50.6485 12.9307 50.7337 12.7573 50.7337 12.5435C50.7337 12.3393 50.6225 12.1753 50.3999 12.0518C50.1772 11.9283 49.7542 11.8 49.131 11.667C48.5077 11.534 47.9932 11.3594 47.5875 11.1432C47.1818 10.9271 46.8726 10.6646 46.6599 10.3558C46.4472 10.0469 46.3408 9.693 46.3408 9.29394C46.3408 8.58606 46.6451 8.00294 47.2535 7.54444C47.862 7.086 48.6585 6.85675 49.643 6.85675ZM30.8546 3.75031V8.90913L34.394 3.75031H37.6145L33.6596 8.92338L37.3106 14.7099H34.2236L31.9232 10.8475L30.8546 11.9734V14.7099H28.25V3.75031H30.8546ZM66.116 6.99931V14.7099H63.6078V6.99931H66.116ZM88.1686 6.99931V8.29625L84.5924 12.8571H88.2505V14.7099H81.4311V13.3702L84.993 8.85213H80.7967L82.468 6.99931H88.1686ZM69.4691 12.2227C70.1535 12.2227 70.7073 12.757 70.7073 13.4162C70.7073 14.0753 70.1535 14.6097 69.4691 14.6097C68.7854 14.6097 68.231 14.0753 68.231 13.4162C68.231 12.757 68.7854 12.2227 69.4691 12.2227ZM75.2767 3.75V9.50869L75.5292 9.19113L77.4192 6.961H80.4248L77.6054 10.1015L80.6111 14.5969H77.7392L75.9836 11.7529L75.2767 12.4233V14.5969H72.7692V3.75H75.2767ZM42.334 11.2822H41.6068C40.7361 11.2822 40.3008 11.6575 40.3008 12.4081C40.3008 12.6267 40.3774 12.8036 40.5308 12.9391C40.6842 13.0744 40.8795 13.1421 41.117 13.1421C41.4287 13.1421 41.6872 13.078 41.8925 12.9498C42.0978 12.8214 42.2449 12.6766 42.334 12.515V11.2822ZM58.3248 8.70963C57.7312 8.70963 57.3353 8.91388 57.1374 9.32244V12.3583C57.3551 12.7858 57.7558 12.9996 58.3396 12.9996C59.1361 12.9996 59.5467 12.3393 59.5714 11.0185V10.7619C59.5714 9.39375 59.1559 8.70963 58.3248 8.70963ZM64.896 3.75C65.5797 3.75 66.1341 4.30977 66.1341 5.00031C66.1341 5.69085 65.5797 6.25063 64.896 6.25063C64.2122 6.25063 63.6578 5.69085 63.6578 5.00031C63.6578 4.30977 64.2122 3.75 64.896 3.75Z" fill="white"/>
</svg>
