<svg width="24" height="24" viewBox="0 0 24 24" fill="none" xmlns="http://www.w3.org/2000/svg">
<path d="M10.9572 12.354C10.9106 12.3076 10.8737 12.2524 10.8485 12.1916C10.8233 12.1309 10.8103 12.0658 10.8103 12C10.8103 11.9342 10.8233 11.8691 10.8485 11.8084C10.8737 11.7476 10.9106 11.6925 10.9572 11.646L15.5432 7.061C15.8246 6.77974 15.9827 6.39822 15.9828 6.00036C15.9829 5.6025 15.8249 5.2209 15.5437 4.9395C15.2624 4.65811 14.8809 4.49997 14.483 4.49988C14.0852 4.49978 13.7036 4.65774 13.4222 4.939L8.83617 9.525C8.18094 10.182 7.81299 11.0721 7.81299 12C7.81299 12.9279 8.18094 13.818 8.83617 14.475L13.4222 19.061C13.7036 19.3423 14.0852 19.5002 14.483 19.5001C14.8809 19.5 15.2624 19.3419 15.5437 19.0605C15.8249 18.7791 15.9829 18.3975 15.9828 17.9997C15.9827 17.6018 15.8246 17.2203 15.5432 16.939L10.9572 12.354Z" fill="white"/>
</svg>
