<svg width="34" height="20" viewBox="0 0 34 20" fill="none" xmlns="http://www.w3.org/2000/svg">
<path d="M10.6866 20C16.2095 20 20.6867 15.5228 20.6867 10C20.6867 4.47715 16.2095 0 10.6866 0C5.16371 0 0.686523 4.47715 0.686523 10C0.686523 15.5228 5.16371 20 10.6866 20Z" fill="white"/>
<path d="M23.2843 20C28.8071 20 33.2843 15.5228 33.2843 10C33.2843 4.47715 28.8071 0 23.2843 0C17.7614 0 13.2842 4.47715 13.2842 10C13.2842 15.5228 17.7614 20 23.2843 20Z" fill="#E2E2E2"/>
<path fill-rule="evenodd" clip-rule="evenodd" d="M16.9845 2.3076C18.1388 3.24048 19.07 4.41976 19.7096 5.75906C20.3492 7.09836 20.6812 8.56378 20.6812 10.048C20.6812 11.5322 20.3492 12.9976 19.7096 14.3369C19.07 15.6762 18.1388 16.8555 16.9845 17.7884C15.8214 16.8559 14.8827 15.6741 14.2377 14.3302C13.5927 12.9863 13.2578 11.5146 13.2578 10.0239C13.2578 8.53327 13.5927 7.06163 14.2377 5.71773C14.8827 4.37383 15.8214 3.24007 16.9845 2.3076Z" fill="#E2E2E2"/>
<mask id="mask0_312_20238" style="mask-type:luminance" maskUnits="userSpaceOnUse" x="13" y="2" width="8" height="16">
<path d="M16.9845 2.3076C18.1388 3.24048 19.07 4.41976 19.7096 5.75906C20.3492 7.09836 20.6812 8.56378 20.6812 10.048C20.6812 11.5322 20.3492 12.9976 19.7096 14.3369C19.07 15.6762 18.1388 16.8555 16.9845 17.7884C15.8214 16.8559 14.8827 15.6741 14.2377 14.3302C13.5927 12.9863 13.2578 11.5146 13.2578 10.0239C13.2578 8.53327 13.5927 7.06163 14.2377 5.71773C14.8827 4.37383 15.8214 3.24007 16.9845 2.3076Z" fill="white"/>
</mask>
<g mask="url(#mask0_312_20238)">
<path fill-rule="evenodd" clip-rule="evenodd" d="M11.4609 4.23047H23.3841V5.52854H11.4609V4.23047ZM11.4609 6.77855H23.3841V8.07662H11.4609V6.77855ZM11.4609 9.3747H23.3841V10.6728H11.4609V9.3747ZM11.4609 11.9228H23.3841V13.2209H11.4609V11.9228ZM11.4609 14.4709H23.3841V15.7689H11.4609V14.4709Z" fill="white"/>
</g>
</svg>
