<svg width="37" height="37" viewBox="0 0 37 37" fill="none" xmlns="http://www.w3.org/2000/svg">
<path d="M33.5 15.5312H21.625V3.65625C21.625 2.86889 21.3122 2.11378 20.7555 1.55703C20.1987 1.00028 19.4436 0.6875 18.6562 0.6875C17.8689 0.6875 17.1138 1.00028 16.557 1.55703C16.0003 2.11378 15.6875 2.86889 15.6875 3.65625V15.5312H3.8125C3.02514 15.5312 2.27003 15.844 1.71328 16.4008C1.15653 16.9575 0.84375 17.7126 0.84375 18.5C0.84375 19.2874 1.15653 20.0425 1.71328 20.5992C2.27003 21.156 3.02514 21.4688 3.8125 21.4688H15.6875V33.3438C15.6875 34.1311 16.0003 34.8862 16.557 35.443C17.1138 35.9997 17.8689 36.3125 18.6562 36.3125C19.4436 36.3125 20.1987 35.9997 20.7555 35.443C21.3122 34.8862 21.625 34.1311 21.625 33.3438V21.4688H33.5C34.2874 21.4688 35.0425 21.156 35.5992 20.5992C36.156 20.0425 36.4688 19.2874 36.4688 18.5C36.4688 17.7126 36.156 16.9575 35.5992 16.4008C35.0425 15.844 34.2874 15.5312 33.5 15.5312Z" fill="white"/>
</svg>
