<svg width="67" height="20" viewBox="0 0 67 20" fill="none" xmlns="http://www.w3.org/2000/svg">
<path d="M24.9072 19.4763L28.258 0.628174H33.4937L30.2476 19.4763H24.9072Z" fill="white"/>
<path d="M24.9072 19.4763L29.2004 0.628174H33.4937L30.2476 19.4763H24.9072Z" fill="white"/>
<path d="M49.1968 0.837693C48.1497 0.418846 46.4743 0 44.38 0C39.1444 0 35.3747 2.61779 35.3747 6.38741C35.3747 9.21463 37.9926 10.6806 40.0868 11.623C42.1811 12.5654 42.8093 13.1937 42.8093 14.0314C42.8093 15.2879 41.1339 15.9162 39.668 15.9162C37.5737 15.9162 36.4219 15.6021 34.6418 14.8691L33.9088 14.5549L33.1758 18.8481C34.4323 19.3717 36.736 19.8952 39.1444 19.8952C44.6942 19.8952 48.3591 17.2774 48.3591 13.2984C48.3591 11.0994 46.9978 9.42406 43.8565 8.0628C41.9716 7.1204 40.8198 6.59684 40.8198 5.65443C40.8198 4.81674 41.7622 3.97905 43.8565 3.97905C45.6366 3.97905 46.8931 4.29318 47.8355 4.71203L48.3591 4.92145L49.1968 0.837693Z" fill="white"/>
<path d="M49.1968 0.837693C48.1497 0.418846 46.4743 0 44.38 0C39.1444 0 36.3172 2.61779 36.3172 6.38741C36.3172 9.21463 37.9926 10.6806 40.0868 11.623C42.1811 12.5654 42.8093 13.1937 42.8093 14.0314C42.8093 15.2879 41.1339 15.9162 39.668 15.9162C37.5737 15.9162 36.4219 15.6021 34.6418 14.8691L33.9088 14.5549L33.1758 18.8481C34.4323 19.3717 36.736 19.8952 39.1444 19.8952C44.6942 19.8952 48.3591 17.2774 48.3591 13.2984C48.3591 11.0994 46.9978 9.42406 43.8565 8.0628C41.9716 7.1204 40.8198 6.59684 40.8198 5.65443C40.8198 4.81674 41.7622 3.97905 43.8565 3.97905C45.6366 3.97905 46.8931 4.29318 47.8355 4.71203L48.3591 4.92145L49.1968 0.837693Z" fill="white"/>
<path d="M58.2049 0.628662C56.9483 0.628662 56.0059 0.733375 55.4823 1.98992L47.6289 19.4768H53.2834L54.3305 16.3354H61.0321L61.6604 19.4768H66.6866L62.2887 0.628662H58.2049ZM55.7965 13.1941C56.1106 12.2517 57.8907 7.64435 57.8907 7.64435C57.8907 7.64435 58.3096 6.49252 58.6237 5.75954L58.9379 7.53964C58.9379 7.53964 59.985 12.2517 60.1944 13.2988H55.7965V13.1941Z" fill="white"/>
<path d="M59.4614 0.628662C58.2049 0.628662 57.2625 0.733375 56.7389 1.98992L47.6289 19.4768H53.2834L54.3305 16.3354H61.0321L61.6604 19.4768H66.6866L62.2887 0.628662H59.4614ZM55.7965 13.1941C56.2153 12.147 57.8907 7.64435 57.8907 7.64435C57.8907 7.64435 58.3096 6.49252 58.6237 5.75954L58.9379 7.53964C58.9379 7.53964 59.985 12.2517 60.1944 13.2988H55.7965V13.1941Z" fill="white"/>
<path d="M15.2675 13.8221L14.7439 11.0996C13.8015 7.95826 10.7649 4.50278 7.41406 2.82739L12.1261 19.5813H17.7806L26.2623 0.733154H20.6078L15.2675 13.8221Z" fill="white"/>
<path d="M15.2675 13.8221L14.7439 11.0996C13.8015 7.95826 10.7649 4.50278 7.41406 2.82739L12.1261 19.5813H17.7806L26.2623 0.733154H21.655L15.2675 13.8221Z" fill="white"/>
<path d="M0.714844 0.628418L1.65726 0.837842C8.35886 2.40852 12.9662 6.38756 14.7463 11.0996L12.8615 2.19909C12.5474 0.942553 11.6049 0.628418 10.4531 0.628418H0.714844Z" fill="#E2E2E2"/>
<path d="M0.714844 0.628418C7.41645 2.19909 12.9662 6.28286 14.7463 10.9949L12.9662 3.56035C12.6521 2.30381 11.6049 1.57083 10.4531 1.57083L0.714844 0.628418Z" fill="#E2E2E2"/>
<path d="M0.714844 0.628418C7.41645 2.19909 12.9662 6.28286 14.7463 10.9949L13.4898 6.91112C13.1756 5.65458 12.7568 4.39804 11.2908 3.87448L0.714844 0.628418Z" fill="#E2E2E2"/>
<path d="M20.5088 13.1938L16.9485 9.63363L15.2731 13.6127L14.8543 10.9949C13.9119 7.85353 10.8752 4.39804 7.52441 2.72266L12.2365 19.4765H17.891L20.5088 13.1938ZM30.247 19.4765L25.7444 14.8692L24.9067 19.4765H30.247ZM42.289 12.9844C42.7078 13.4033 42.9173 13.7174 42.8125 14.1362C42.8125 15.3928 41.1371 16.021 39.6712 16.021C37.5769 16.021 36.4251 15.7069 34.645 14.9739L33.912 14.6598L33.179 18.953C34.4355 19.4765 36.7392 20.0001 39.1476 20.0001C42.4984 20.0001 45.2209 19.0577 46.7916 17.3823L42.289 12.9844ZM48.3623 19.4765H53.2838L54.3309 16.3352H61.0325L61.6608 19.4765H66.687L64.9069 11.8326L58.6241 5.7593L58.9383 7.43468C58.9383 7.43468 59.9854 12.1467 60.1948 13.1938H55.7969C56.2157 12.1467 57.8911 7.64411 57.8911 7.64411C57.8911 7.64411 58.31 6.49228 58.6241 5.7593" fill="white"/>
</svg>
