<svg width="32" height="32" viewBox="0 0 32 32" fill="none" xmlns="http://www.w3.org/2000/svg">
<path d="M27.2713 4.647C24.2623 1.65212 20.2595 0.0016875 15.9993 0C11.7486 0 7.73937 1.64894 4.71059 4.64313C1.67642 7.64225 0.00394129 11.6281 0 15.8518V15.8596C0.000500481 18.4159 0.672772 20.9948 1.94887 23.3488L0.0437921 32L8.80296 30.0095C11.0213 31.1264 13.4967 31.7153 15.9932 31.7163H15.9996C20.2495 31.7163 24.2587 30.0671 27.288 27.0728C30.3248 24.0711 31.9981 20.0903 32 15.864C32.0013 11.6675 30.3221 7.68381 27.2714 4.647H27.2713ZM15.9993 29.2188H15.9936C13.752 29.2178 11.5308 28.6555 9.5707 27.5923L9.15655 27.3677L3.33208 28.6912L4.59717 22.947L4.35331 22.5269C3.14071 20.4377 2.4999 18.1316 2.4999 15.8569C2.50453 8.49438 8.55966 2.4975 15.9987 2.4975C19.5925 2.499 22.9693 3.89088 25.5069 6.41625C28.0829 8.98069 29.501 12.3357 29.4997 15.8633C29.4968 23.2276 23.4404 29.2188 15.9993 29.2188Z" fill="white"/>
<path d="M12.1735 9.14294H11.455C11.2049 9.14294 10.7988 9.23411 10.4554 9.59801C10.1116 9.96217 9.14307 10.8424 9.14307 12.6324C9.14307 14.4225 10.4867 16.152 10.6739 16.395C10.8615 16.6377 13.2675 20.4284 17.0782 21.8868C20.2453 23.0987 20.8899 22.8576 21.5771 22.7969C22.2645 22.7364 23.7954 21.917 24.1078 21.0676C24.4203 20.2181 24.4203 19.4898 24.3266 19.3377C24.2327 19.1861 23.9827 19.0952 23.6079 18.9134C23.2329 18.7313 21.3954 17.8363 21.0517 17.7146C20.7079 17.5935 20.4581 17.5328 20.208 17.8972C19.9579 18.2608 19.2216 19.1023 19.0029 19.345C18.7843 19.588 18.5655 19.6185 18.1905 19.4364C17.8154 19.2538 16.6203 18.8629 15.1881 17.6238C14.0733 16.6592 13.2998 15.4293 13.0809 15.0651C12.8624 14.7012 13.0577 14.5043 13.2456 14.3227C13.4142 14.1599 13.6417 13.9371 13.8292 13.7248C14.0165 13.5123 14.0698 13.3607 14.195 13.1179C14.32 12.8752 14.2573 12.6626 14.1637 12.4808C14.0698 12.2987 13.3504 10.4997 13.0169 9.78009H13.0171C12.7363 9.17421 12.4406 9.15361 12.1735 9.14294Z" fill="white"/>
</svg>
