<svg width="136" height="136" viewBox="0 0 136 136" fill="none" xmlns="http://www.w3.org/2000/svg">
<g clip-path="url(#clip0_223_31783)">
<path fill-rule="evenodd" clip-rule="evenodd" d="M-68 157.25H204V-21.25H-68V157.25ZM58.3005 50.9425C59.041 51.2471 59.6048 52.0842 59.7613 53.1117C59.8235 53.5197 59.7829 55.0082 59.671 56.4196C59.1317 63.2225 57.1064 71.1096 54.4515 76.7465C52.716 80.4311 50.1439 83.6329 48.0533 84.711C47.1385 85.1828 46.8984 85.2253 45.152 85.2253C43.4424 85.2253 43.1553 85.1771 42.3413 84.7529C40.3419 83.7116 39.0499 81.7665 38.1908 78.5049C37.6823 76.5743 37.1739 72.6846 37.1735 70.7221C37.1735 70.0103 37.1095 69.428 37.0317 69.428C36.9537 69.428 36.4491 70.3719 35.9102 71.5254C34.534 74.4708 31.6954 80.1034 30.6248 82.0123C28.9731 84.958 28.3137 85.4207 25.84 85.3707C23.8669 85.3309 21.4989 84.8745 20.8285 84.4047C19.9077 83.7592 19.3611 81.3895 19.0023 76.4875C18.6655 71.8858 19.2124 64.872 20.4074 58.469C20.662 57.1049 20.9799 55.7308 21.1137 55.4156C21.7036 54.0258 22.997 53.446 25.8919 53.2736C28.5827 53.1135 28.6554 53.2425 27.9311 56.885C26.4284 64.4436 26.213 66.5117 26.2155 73.355C26.2168 76.6462 26.2973 79.6455 26.3949 80.0259L26.5719 80.7171L28.2744 77.2592C31.5025 70.7021 32.7368 68.0514 35.9932 60.6815C36.9693 58.4726 37.9215 56.4496 38.109 56.1863C38.5475 55.5705 40.005 55.2523 41.8517 55.369C44.095 55.5105 43.9668 55.015 43.7173 62.5831C43.4039 72.0891 43.8415 76.7942 45.2862 79.4558C46.123 80.9975 47.1954 81.0187 48.272 79.5149C49.391 77.9523 50.2241 75.4247 51.0374 71.1238C51.8408 66.8753 52.1105 63.2705 52.0771 57.2302C52.0572 53.6538 52.1136 51.6028 52.2378 51.3742C52.539 50.8201 53.0659 50.7089 55.4485 50.6967C56.9994 50.6889 57.8653 50.7635 58.3005 50.9425ZM95.245 50.8733C96.1427 51.1187 96.4693 51.756 96.4693 53.262C96.4693 54.9297 95.6832 58.3912 94.6221 61.3955C92.9058 66.2552 91.891 70.8674 91.5452 75.3806C91.306 78.5031 91.483 79.7194 92.2921 80.5161C94.0841 82.2798 97.3794 80.3201 99.5311 76.211C100.456 74.4455 100.741 73.498 101.09 71.0345C101.249 69.9055 101.499 68.3504 101.645 67.5788C101.79 66.8069 101.909 66.1042 101.909 66.0169C101.909 65.9294 101.095 65.858 100.1 65.858C98.4011 65.858 98.2739 65.8325 98.0117 65.4383C97.7773 65.0863 97.7626 64.8057 97.9196 63.698C98.0248 62.9568 98.2534 62.1814 98.4406 61.931C98.7568 61.5078 98.8782 61.4821 100.783 61.4344L102.793 61.3841L102.978 60.4527C103.08 59.9404 103.345 58.5989 103.568 57.4717C104.122 54.6575 104.173 54.6125 106.815 54.6125C108.262 54.6125 109.003 54.6909 109.426 54.8883C110.48 55.3806 110.511 55.6319 109.891 58.7007C109.586 60.2119 109.372 61.4826 109.415 61.5247C109.458 61.5669 110.948 61.6779 112.728 61.7716C114.507 61.8651 116.18 62.0265 116.446 62.13C117.046 62.3644 117.209 62.952 116.915 63.819C116.46 65.1553 115.281 65.4981 111.135 65.4999L108.664 65.501L108.542 66.0811C106.922 73.7727 106.43 78.6388 107.138 79.9624C107.794 81.1878 109.296 81.4889 110.946 80.7254C111.779 80.3397 113.229 78.8971 113.703 77.9817C114.171 77.0796 114.713 76.9411 115.681 77.4764C116.579 77.9737 116.603 78.2632 115.85 79.5881C114.055 82.7475 111.151 84.917 108.169 85.3252C105.514 85.6888 103.208 84.9618 101.975 83.3721C101.418 82.6534 100.649 80.7101 100.634 79.9854C100.63 79.7833 100.505 79.859 100.232 80.2273C99.5251 81.1824 97.6685 83.0201 96.8436 83.5809C93.3391 85.9637 88.8624 86.0851 86.5591 83.8599C84.6709 82.0356 84.347 79.4642 85.2395 73.3829C85.4317 72.0727 85.6347 70.9281 85.6905 70.8392C85.8693 70.5543 85.5815 70.6652 84.9878 71.1097C84.2387 71.6707 82.6845 72.4345 81.7512 72.7004C81.0304 72.9059 81.0072 72.9377 80.6901 74.1591C79.4229 79.0384 76.7444 82.6563 73.168 84.3194C71.3715 85.1546 70.1925 85.3939 67.9093 85.3868C63.0365 85.3715 60.3185 83.3992 59.1892 79.0595C58.8095 77.6006 58.9161 73.119 59.3696 71.4808C60.7846 66.3687 64.1414 62.5484 68.544 61.0403C69.9801 60.5482 73.5145 60.344 75.072 60.6629C78.42 61.3486 80.6445 63.7829 81.1204 67.2817C81.3436 68.9236 81.3717 68.9398 82.8269 68.2729C84.1782 67.6537 85.5083 66.6257 86.4538 65.4701C86.5801 65.3157 86.8829 64.0746 87.1265 62.7123C87.7728 59.0984 88.5993 54.922 89.0113 53.1868C89.3959 51.5676 89.8637 50.9597 90.8404 50.8097C91.8334 50.6573 94.6009 50.6973 95.245 50.8733ZM70.6293 64.4077C67.73 65.7145 65.6249 71.4135 65.8539 77.3357C65.9375 79.4949 66.3762 80.6019 67.4268 81.3049C69.9879 83.0179 73.1411 79.799 74.5149 74.069C74.7385 73.1363 74.9534 72.271 74.9926 72.1462C75.0317 72.0213 74.78 71.61 74.4335 71.2323C73.172 69.8578 72.6412 67.6166 73.0577 65.4225C73.2151 64.5932 73.2097 64.3311 73.0322 64.2203C72.6347 63.9718 71.3791 64.0698 70.6293 64.4077Z" fill="#4CB1E3"/>
<path fill-rule="evenodd" clip-rule="evenodd" d="M52.8251 50.8653C52.6073 50.9517 52.3429 51.1807 52.2378 51.3742C52.1136 51.6028 52.0572 53.6538 52.0771 57.2302C52.1105 63.2705 51.8408 66.8753 51.0374 71.1238C50.2241 75.4247 49.391 77.9523 48.272 79.5149C47.1954 81.0187 46.123 80.9975 45.2862 79.4558C44.701 78.3778 44.4968 77.7154 44.1665 75.8246C43.6094 72.6355 43.4961 69.2943 43.7173 62.5831C43.9668 55.015 44.095 55.5105 41.8517 55.369C40.005 55.2523 38.5475 55.5705 38.109 56.1863C37.9215 56.4496 36.9693 58.4726 35.9932 60.6815C32.7368 68.0514 31.5025 70.7021 28.2744 77.2592L26.5719 80.7171L26.3949 80.0259C26.2973 79.6455 26.2168 76.6462 26.2155 73.355C26.213 66.5117 26.4284 64.4436 27.9311 56.885C28.6554 53.2425 28.5827 53.1135 25.8919 53.2736C22.997 53.446 21.7036 54.0258 21.1137 55.4156C20.9799 55.7308 20.662 57.1049 20.4074 58.469C19.2124 64.872 18.6655 71.8858 19.0023 76.4875C19.3611 81.3895 19.9077 83.7592 20.8285 84.4047C21.4989 84.8745 23.8669 85.3309 25.84 85.3707C28.3137 85.4207 28.9731 84.958 30.6248 82.0123C31.6954 80.1034 34.534 74.4708 35.9102 71.5254C36.4491 70.3719 36.9537 69.428 37.0317 69.428C37.1095 69.428 37.1735 70.0103 37.1735 70.7221C37.1739 72.6846 37.6823 76.5743 38.1908 78.5049C39.0499 81.7665 40.3419 83.7116 42.3413 84.7529C43.1553 85.1771 43.4424 85.2253 45.152 85.2253C46.8984 85.2253 47.1385 85.1828 48.0533 84.711C50.1439 83.6329 52.716 80.4311 54.4515 76.7465C57.1064 71.1096 59.1317 63.2225 59.671 56.4196C59.8969 53.5692 59.8206 52.6485 59.2868 51.7845C58.7331 50.8883 58.0118 50.6837 55.4485 50.6967C54.2235 50.703 53.0431 50.7789 52.8251 50.8653ZM90.8404 50.8097C89.8637 50.9597 89.3959 51.5676 89.0113 53.1868C88.5993 54.922 87.7728 59.0984 87.1265 62.7123C86.8829 64.0746 86.5801 65.3157 86.4538 65.4701C85.5083 66.6257 84.1782 67.6537 82.8269 68.2729C81.3717 68.9398 81.3436 68.9236 81.1204 67.2817C80.6445 63.7829 78.42 61.3486 75.072 60.6629C73.5145 60.344 69.9801 60.5482 68.544 61.0403C64.1414 62.5484 60.7846 66.3687 59.3696 71.4808C58.9161 73.119 58.8095 77.6006 59.1892 79.0595C59.8598 81.6365 61.1681 83.4497 63.032 84.3859C64.9817 85.365 68.5772 85.7147 70.9013 85.1514C75.6055 84.0109 79.1714 80.0064 80.6901 74.1591C81.0072 72.9377 81.0304 72.9059 81.7512 72.7004C82.6845 72.4345 84.2387 71.6707 84.9878 71.1097C85.5815 70.6652 85.8693 70.5543 85.6905 70.8392C85.5505 71.0622 84.9162 75.449 84.771 77.1976C84.6283 78.9167 84.9062 81.0924 85.4183 82.2639C87.0072 85.8998 92.5016 86.5331 96.8436 83.5809C97.6685 83.0201 99.5251 81.1824 100.232 80.2273C100.505 79.859 100.63 79.7833 100.634 79.9854C100.649 80.7101 101.418 82.6534 101.975 83.3721C103.208 84.9618 105.514 85.6888 108.169 85.3252C111.151 84.917 114.055 82.7475 115.85 79.5881C116.603 78.2632 116.579 77.9737 115.681 77.4764C114.713 76.9411 114.171 77.0796 113.703 77.9817C113.229 78.8971 111.779 80.3397 110.946 80.7254C109.296 81.4889 107.794 81.1878 107.138 79.9624C106.43 78.6388 106.922 73.7727 108.542 66.0811L108.664 65.501L111.135 65.4999C115.281 65.4981 116.46 65.1553 116.915 63.819C117.209 62.952 117.046 62.3644 116.446 62.13C116.18 62.0265 114.507 61.8651 112.728 61.7716C110.948 61.6779 109.458 61.5669 109.415 61.5247C109.372 61.4826 109.586 60.2119 109.891 58.7007C110.511 55.6319 110.48 55.3806 109.426 54.8883C109.003 54.6909 108.262 54.6125 106.815 54.6125C104.173 54.6125 104.122 54.6575 103.568 57.4717C103.345 58.5989 103.08 59.9404 102.978 60.4527L102.793 61.3841L100.783 61.4344C98.8782 61.4821 98.7568 61.5078 98.4406 61.931C98.2534 62.1814 98.0248 62.9568 97.9196 63.698C97.7626 64.8057 97.7773 65.0863 98.0117 65.4383C98.2739 65.8325 98.4011 65.858 100.1 65.858C101.095 65.858 101.909 65.9294 101.909 66.0169C101.909 66.1042 101.79 66.8069 101.645 67.5788C101.499 68.3504 101.249 69.9055 101.09 71.0345C100.741 73.498 100.456 74.4455 99.5311 76.211C97.3794 80.3201 94.0841 82.2798 92.2921 80.5161C91.483 79.7194 91.306 78.5031 91.5452 75.3806C91.891 70.8674 92.9058 66.2552 94.6221 61.3955C95.6832 58.3912 96.4693 54.9297 96.4693 53.262C96.4693 51.756 96.1427 51.1187 95.245 50.8733C94.6009 50.6973 91.8334 50.6573 90.8404 50.8097ZM73.0322 64.2203C73.2097 64.3311 73.2151 64.5932 73.0577 65.4225C72.6412 67.6166 73.172 69.8578 74.4335 71.2323C74.78 71.61 75.0317 72.0213 74.9926 72.1462C74.9534 72.271 74.7385 73.1363 74.5149 74.069C73.1411 79.799 69.9879 83.0179 67.4268 81.3049C66.3762 80.6019 65.9375 79.4949 65.8539 77.3357C65.6249 71.4135 67.73 65.7145 70.6293 64.4077C71.3791 64.0698 72.6347 63.9718 73.0322 64.2203Z" fill="white"/>
</g>
<rect x="2.125" y="2.125" width="131.75" height="131.75" rx="31.875" stroke="white" stroke-width="4.25"/>
<defs>
<clipPath id="clip0_223_31783">
<rect width="136" height="136" rx="34" fill="white"/>
</clipPath>
</defs>
</svg>
