<svg width="136" height="136" viewBox="0 0 136 136" fill="none" xmlns="http://www.w3.org/2000/svg">
<g clip-path="url(#clip0_223_31780)">
<path fill-rule="evenodd" clip-rule="evenodd" d="M0 68V136H68H136V68V0H68H0V68ZM70.2525 23.5542C76.7406 24.0657 83.1337 26.2732 88.5275 29.8643C90.7691 31.3568 92.2858 32.6096 94.3536 34.6769C97.3876 37.7101 99.448 40.5276 101.411 44.3275C105.637 52.509 106.813 61.8365 104.707 70.465C103.023 77.3591 99.3988 83.4483 94.18 88.15C87.6865 94 78.9881 97.2291 70.465 96.9538C65.6207 96.7973 61.3961 95.7281 57.1625 93.587C50.0665 89.9983 44.6842 83.8243 42.0804 76.2867C41.0071 73.1796 40.5001 70.4443 40.4025 67.235C40.0586 55.9245 46.3245 45.7532 56.3649 41.3234C59.8821 39.7717 63.1411 39.0732 66.8525 39.0759C71.8344 39.0795 76.0441 40.3407 80.1125 43.0484C85.2791 46.4871 88.7924 51.9019 89.8986 58.1311C90.1672 59.643 90.2701 62.5634 90.1059 64.0116C89.49 69.4435 86.7941 74.3495 82.6753 77.5336C79.0294 80.3522 74.2164 81.7819 69.8578 81.3409C62.4895 80.5956 56.8341 75.2355 55.8837 68.0966C55.505 65.252 56.0841 62.3334 57.4971 59.9655C59.1741 57.1553 61.6474 55.3626 64.8975 54.6017C65.9077 54.3652 68.3737 54.3843 69.2899 54.6357C70.8419 55.0617 72.1222 55.7835 73.1518 56.8132C73.8416 57.503 74.5358 58.5177 74.8035 59.2274C75.0318 59.8329 75.1082 60.8331 74.9751 61.4736C74.672 62.932 73.4622 64.2049 72.007 64.5968C71.173 64.8213 69.9067 64.6681 69.0687 64.2412C68.6554 64.0307 67.8758 63.3049 67.6053 62.8787C67.4226 62.591 67.3672 62.56 67.0366 62.56C66.278 62.56 65.4504 62.9662 64.8731 63.6221C63.6823 64.9749 63.5916 67.1127 64.6348 69.2326C66.3254 72.6677 70.5603 74.112 74.6959 72.664C78.2517 71.4191 80.863 68.4399 81.7641 64.6C82.4531 61.6638 81.997 58.3223 80.501 55.3469C79.4751 53.3064 77.5513 51.1363 75.6474 49.8718C73.9157 48.7217 71.9798 47.9271 69.87 47.5002C69.0072 47.3257 68.6531 47.3026 66.8525 47.3033C64.6182 47.3042 63.8773 47.4021 61.9731 47.948C57.6886 49.1764 53.8894 52.051 51.467 55.8974C50.3974 57.5957 49.4606 59.8839 49.0112 61.8956C48.3845 64.7011 48.3689 67.9753 48.9688 70.799C49.7006 74.2436 51.2964 77.6134 53.5202 80.41C54.2575 81.3373 55.9377 83.0175 56.865 83.7548C62.8318 88.4995 70.7356 89.9923 78.3315 87.8096C83.9161 86.2049 88.739 82.9013 92.1913 78.3159C94.9614 74.6366 96.7129 70.2864 97.3713 65.45C97.558 64.0788 97.6253 61.1396 97.504 59.6555C96.5602 48.108 89.194 38.0379 78.625 33.8468C74.964 32.395 71.739 31.7404 67.7875 31.6468C64.8437 31.5771 62.5063 31.803 59.7249 32.4261C49.9057 34.6257 41.459 41.1312 36.8777 50.0225C34.6954 54.2579 33.4601 58.6265 33.0561 63.5375C32.9146 65.2576 33.0069 69.1206 33.2299 70.805C33.8558 75.5346 35.1214 79.6063 37.2569 83.7604C42.9884 94.9099 53.4235 102.3 65.8838 104.033C67.8842 104.311 69.1952 104.396 71.485 104.396C74.517 104.397 76.6712 104.187 79.56 103.611C84.8472 102.556 89.7265 100.574 94.1375 97.6879C96.2766 96.2883 97.2696 95.5081 99.875 93.1799L100.342 92.7621L103.105 95.6492C104.624 97.2371 105.878 98.5641 105.892 98.5982C105.948 98.7431 103.956 100.54 102.17 101.954C93.9756 108.445 83.7479 112.181 73.2238 112.529C61.2433 112.925 50.3162 109.255 41.395 101.841C40.0778 100.746 36.9589 97.6191 35.8561 96.2877C29.5688 88.6967 25.9116 79.9489 24.9894 70.295C24.7277 67.555 24.7993 63.5862 25.162 60.7325C26.2392 52.2555 29.8521 44.1239 35.2747 37.9723C40.4361 32.1168 46.8296 27.8772 54.06 25.5156C59.419 23.7652 64.7454 23.12 70.2525 23.5542Z" fill="#FFD401"/>
<path fill-rule="evenodd" clip-rule="evenodd" d="M65.705 23.4284C51.4871 23.9409 38.2747 31.7154 30.9887 43.8563C26.7725 50.8818 24.6482 58.9671 24.8461 67.235C24.8736 68.3804 24.938 69.7574 24.9894 70.295C25.9115 79.9489 29.5687 88.6967 35.8561 96.2877C36.9589 97.6191 40.0778 100.746 41.395 101.841C45.8604 105.552 50.7292 108.281 56.0919 110.078C61.6411 111.938 67.1686 112.729 73.2238 112.529C83.7479 112.181 93.9755 108.445 102.17 101.954C103.956 100.54 105.948 98.7431 105.892 98.5982C105.878 98.5641 104.624 97.2371 103.105 95.6492L100.342 92.7621L99.875 93.1799C97.2696 95.5081 96.2766 96.2883 94.1375 97.6879C88.3805 101.455 81.9582 103.641 74.715 104.3C73.3484 104.424 69.6372 104.424 68.2125 104.299C61.4029 103.704 55.3722 101.638 49.9375 98.0376C41.5507 92.4819 35.5236 83.3329 33.6211 73.27C33.2 71.0425 33.0582 69.6198 33.0068 67.1075C32.9437 64.0162 33.1057 61.984 33.6269 59.33C36.6084 44.1498 49.1193 32.9727 64.5575 31.6968C66.8868 31.5043 70.4647 31.6939 72.8025 32.1337C80.0967 33.5058 86.6147 37.4633 91.12 43.2554C94.7956 47.9809 97.016 53.6851 97.504 59.6555C97.6253 61.1396 97.558 64.0788 97.3713 65.45C96.7129 70.2864 94.9614 74.6366 92.1912 78.3159C85.9493 86.6064 75.2011 90.534 65.5257 88.0599C62.3868 87.2573 59.4068 85.776 56.865 83.7548C55.9377 83.0175 54.2574 81.3373 53.5201 80.41C51.2964 77.6134 49.7006 74.2436 48.9688 70.799C48.5307 68.7372 48.4051 65.8611 48.6656 63.8606C49.1174 60.3922 50.3997 57.1999 52.4275 54.4955C53.0887 53.6138 54.6182 52.0471 55.5486 51.2988C57.9494 49.3677 60.6279 48.1397 63.835 47.4993C64.6903 47.3285 65.0673 47.304 66.8525 47.3033C68.6531 47.3026 69.0071 47.3257 69.87 47.5002C71.9798 47.9271 73.9157 48.7217 75.6473 49.8718C77.5513 51.1363 79.4751 53.3064 80.501 55.3469C81.997 58.3223 82.453 61.6638 81.764 64.6C80.8629 68.4399 78.2517 71.4191 74.6959 72.664C72.9575 73.2727 70.983 73.392 69.4134 72.9831C67.2371 72.4163 65.55 71.0921 64.6348 69.2326C63.5915 67.1127 63.6823 64.9749 64.8731 63.6221C65.4504 62.9662 66.278 62.56 67.0366 62.56C67.3671 62.56 67.4226 62.591 67.6052 62.8787C67.8758 63.3049 68.6554 64.0307 69.0687 64.2412C69.9067 64.6681 71.173 64.8213 72.007 64.5968C73.4622 64.2049 74.672 62.932 74.9751 61.4736C75.1082 60.8331 75.0318 59.8329 74.8035 59.2274C74.1836 57.5837 72.4139 55.8437 70.5896 55.0842C69.3106 54.5518 68.7925 54.4574 67.1075 54.4496C65.4716 54.442 64.9316 54.5223 63.58 54.974C58.354 56.7204 55.1063 62.2579 55.8836 68.0966C56.834 75.2355 62.4894 80.5956 69.8577 81.3409C74.2164 81.7819 79.0294 80.3522 82.6753 77.5336C86.7941 74.3495 89.49 69.4435 90.1058 64.0116C90.2701 62.5634 90.1671 59.643 89.8986 58.1311C88.7923 51.9018 85.279 46.4871 80.1125 43.0484C77.4564 41.2807 74.7657 40.1532 71.7064 39.5262C68.7377 38.9177 65.3162 38.9059 62.1814 39.4933C56.7788 40.5057 51.6848 43.2919 47.8472 47.3334C39.7393 55.8724 38.0699 68.9199 43.664 80.0275C47.4036 87.4524 53.7728 92.8962 61.7525 95.4873C67.6244 97.3941 74.4432 97.4576 80.6225 95.6631C87.8986 93.5501 94.2241 89.1894 98.7408 83.1725C101.917 78.9409 104.205 73.6692 105.14 68.425C106.259 62.1528 105.777 55.8842 103.703 49.716C102.413 45.8808 100.34 41.9334 97.972 38.8025C95.7923 35.9207 93.0676 33.195 90.2275 31.0557C85.2152 27.28 78.8677 24.6801 72.5177 23.8018C70.4662 23.5181 67.5903 23.3605 65.705 23.4284Z" fill="#090909"/>
</g>
<defs>
<clipPath id="clip0_223_31780">
<rect width="136" height="136" rx="34" fill="white"/>
</clipPath>
</defs>
</svg>
